<svg width="141" height="33" viewBox="0 0 141 33" fill="none" xmlns="http://www.w3.org/2000/svg">
<path d="M73.6 10.1L69.48 24H66.9L63.98 13.48L60.88 24L58.32 24.02L54.38 10.1H56.8L59.68 21.42L62.8 10.1H65.36L68.26 21.36L71.16 10.1H73.6ZM85.5805 18.22C85.5805 18.6333 85.5538 19.0067 85.5005 19.34H77.0805C77.1471 20.22 77.4738 20.9267 78.0605 21.46C78.6471 21.9933 79.3671 22.26 80.2205 22.26C81.4471 22.26 82.3138 21.7467 82.8205 20.72H85.2805C84.9471 21.7333 84.3405 22.5667 83.4605 23.22C82.5938 23.86 81.5138 24.18 80.2205 24.18C79.1671 24.18 78.2205 23.9467 77.3805 23.48C76.5538 23 75.9005 22.3333 75.4205 21.48C74.9538 20.6133 74.7205 19.6133 74.7205 18.48C74.7205 17.3467 74.9471 16.3533 75.4005 15.5C75.8671 14.6333 76.5138 13.9667 77.3405 13.5C78.1805 13.0333 79.1405 12.8 80.2205 12.8C81.2605 12.8 82.1871 13.0267 83.0005 13.48C83.8138 13.9333 84.4471 14.5733 84.9005 15.4C85.3538 16.2133 85.5805 17.1533 85.5805 18.22ZM83.2005 17.5C83.1871 16.66 82.8871 15.9867 82.3005 15.48C81.7138 14.9733 80.9871 14.72 80.1205 14.72C79.3338 14.72 78.6605 14.9733 78.1005 15.48C77.5405 15.9733 77.2071 16.6467 77.1005 17.5H83.2005ZM87.0642 18.44C87.0642 17.3333 87.2909 16.3533 87.7442 15.5C88.2109 14.6467 88.8376 13.9867 89.6242 13.52C90.4242 13.04 91.3042 12.8 92.2642 12.8C93.1309 12.8 93.8842 12.9733 94.5242 13.32C95.1776 13.6533 95.6976 14.0733 96.0842 14.58V12.98H98.3842V24H96.0842V22.36C95.6976 22.88 95.1709 23.3133 94.5042 23.66C93.8376 24.0067 93.0776 24.18 92.2242 24.18C91.2776 24.18 90.4109 23.94 89.6242 23.46C88.8376 22.9667 88.2109 22.2867 87.7442 21.42C87.2909 20.54 87.0642 19.5467 87.0642 18.44ZM96.0842 18.48C96.0842 17.72 95.9242 17.06 95.6042 16.5C95.2976 15.94 94.8909 15.5133 94.3842 15.22C93.8776 14.9267 93.3309 14.78 92.7442 14.78C92.1576 14.78 91.6109 14.9267 91.1042 15.22C90.5976 15.5 90.1842 15.92 89.8642 16.48C89.5576 17.0267 89.4042 17.68 89.4042 18.44C89.4042 19.2 89.5576 19.8667 89.8642 20.44C90.1842 21.0133 90.5976 21.4533 91.1042 21.76C91.6242 22.0533 92.1709 22.2 92.7442 22.2C93.3309 22.2 93.8776 22.0533 94.3842 21.76C94.8909 21.4667 95.2976 21.04 95.6042 20.48C95.9242 19.9067 96.0842 19.24 96.0842 18.48ZM104.039 14.84V20.94C104.039 21.3533 104.132 21.6533 104.319 21.84C104.519 22.0133 104.852 22.1 105.319 22.1H106.719V24H104.919C103.892 24 103.106 23.76 102.559 23.28C102.012 22.8 101.739 22.02 101.739 20.94V14.84H100.439V12.98H101.739V10.24H104.039V12.98H106.719V14.84H104.039ZM114.52 12.8C115.36 12.8 116.107 12.98 116.76 13.34C117.427 13.7 117.947 14.2333 118.32 14.94C118.707 15.6467 118.9 16.5 118.9 17.5V24H116.64V17.84C116.64 16.8533 116.394 16.1 115.9 15.58C115.407 15.0467 114.734 14.78 113.88 14.78C113.027 14.78 112.347 15.0467 111.84 15.58C111.347 16.1 111.1 16.8533 111.1 17.84V24H108.82V9.2H111.1V14.26C111.487 13.7933 111.974 13.4333 112.56 13.18C113.16 12.9267 113.814 12.8 114.52 12.8ZM131.909 18.22C131.909 18.6333 131.882 19.0067 131.829 19.34H123.409C123.475 20.22 123.802 20.9267 124.389 21.46C124.975 21.9933 125.695 22.26 126.549 22.26C127.775 22.26 128.642 21.7467 129.149 20.72H131.609C131.275 21.7333 130.669 22.5667 129.789 23.22C128.922 23.86 127.842 24.18 126.549 24.18C125.495 24.18 124.549 23.9467 123.709 23.48C122.882 23 122.229 22.3333 121.749 21.48C121.282 20.6133 121.049 19.6133 121.049 18.48C121.049 17.3467 121.275 16.3533 121.729 15.5C122.195 14.6333 122.842 13.9667 123.669 13.5C124.509 13.0333 125.469 12.8 126.549 12.8C127.589 12.8 128.515 13.0267 129.329 13.48C130.142 13.9333 130.775 14.5733 131.229 15.4C131.682 16.2133 131.909 17.1533 131.909 18.22ZM129.529 17.5C129.515 16.66 129.215 15.9867 128.629 15.48C128.042 14.9733 127.315 14.72 126.449 14.72C125.662 14.72 124.989 14.9733 124.429 15.48C123.869 15.9733 123.535 16.6467 123.429 17.5H129.529ZM136.432 14.58C136.766 14.02 137.206 13.5867 137.752 13.28C138.312 12.96 138.972 12.8 139.732 12.8V15.16H139.152C138.259 15.16 137.579 15.3867 137.112 15.84C136.659 16.2933 136.432 17.08 136.432 18.2V24H134.152V12.98H136.432V14.58Z" fill="url(#paint0_linear_29_208)"/>
<g filter="url(#filter0_i_29_208)">
<circle cx="33.5768" cy="11.8924" r="11.8924" fill="#FFAB0B"/>
</g>
<g filter="url(#filter1_bi_29_208)">
<path fill-rule="evenodd" clip-rule="evenodd" d="M15.4938 32.906C15.4397 32.9072 15.3854 32.9077 15.331 32.9077C11.2822 32.9077 8 29.6256 8 25.5768C8 22.8292 9.51154 20.4346 11.7484 19.1793C11.7474 19.1126 11.7468 19.0458 11.7468 18.9788C11.7468 12.2759 17.1807 6.84204 23.8836 6.84204C29.6656 6.84204 34.5032 10.8852 35.7235 16.2984C40.1476 16.4842 43.6773 20.1296 43.6773 24.5994C43.6773 29.188 39.9575 32.9078 35.3689 32.9078C35.2597 32.9078 35.1511 32.9057 35.043 32.9015V32.9078H15.4938V32.906Z" fill="url(#paint1_radial_29_208)" fill-opacity="0.77"/>
</g>
<g style="mix-blend-mode:soft-light" filter="url(#filter2_di_29_208)">
<circle cx="15.331" cy="25.5768" r="7.33096" fill="#848484"/>
</g>
<defs>
<filter id="filter0_i_29_208" x="11.6844" y="0" width="33.7849" height="36.7849" filterUnits="userSpaceOnUse" color-interpolation-filters="sRGB">
<feFlood flood-opacity="0" result="BackgroundImageFix"/>
<feBlend mode="normal" in="SourceGraphic" in2="BackgroundImageFix" result="shape"/>
<feColorMatrix in="SourceAlpha" type="matrix" values="0 0 0 0 0 0 0 0 0 0 0 0 0 0 0 0 0 0 127 0" result="hardAlpha"/>
<feOffset dx="-10" dy="13"/>
<feGaussianBlur stdDeviation="12"/>
<feComposite in2="hardAlpha" operator="arithmetic" k2="-1" k3="1"/>
<feColorMatrix type="matrix" values="0 0 0 0 1 0 0 0 0 0.886275 0 0 0 0 0 0 0 0 0.9 0"/>
<feBlend mode="normal" in2="shape" result="effect1_innerShadow_29_208"/>
</filter>
<filter id="filter1_bi_29_208" x="-8" y="-9.15796" width="67.6773" height="58.0659" filterUnits="userSpaceOnUse" color-interpolation-filters="sRGB">
<feFlood flood-opacity="0" result="BackgroundImageFix"/>
<feGaussianBlur in="BackgroundImageFix" stdDeviation="8"/>
<feComposite in2="SourceAlpha" operator="in" result="effect1_backgroundBlur_29_208"/>
<feBlend mode="normal" in="SourceGraphic" in2="effect1_backgroundBlur_29_208" result="shape"/>
<feColorMatrix in="SourceAlpha" type="matrix" values="0 0 0 0 0 0 0 0 0 0 0 0 0 0 0 0 0 0 127 0" result="hardAlpha"/>
<feOffset dx="1" dy="2"/>
<feGaussianBlur stdDeviation="7"/>
<feComposite in2="hardAlpha" operator="arithmetic" k2="-1" k3="1"/>
<feColorMatrix type="matrix" values="0 0 0 0 1 0 0 0 0 1 0 0 0 0 1 0 0 0 1 0"/>
<feBlend mode="normal" in2="shape" result="effect2_innerShadow_29_208"/>
</filter>
<filter id="filter2_di_29_208" x="0" y="2.24585" width="44.6619" height="42.6619" filterUnits="userSpaceOnUse" color-interpolation-filters="sRGB">
<feFlood flood-opacity="0" result="BackgroundImageFix"/>
<feColorMatrix in="SourceAlpha" type="matrix" values="0 0 0 0 0 0 0 0 0 0 0 0 0 0 0 0 0 0 127 0" result="hardAlpha"/>
<feOffset dx="-2" dy="-10"/>
<feGaussianBlur stdDeviation="3"/>
<feColorMatrix type="matrix" values="0 0 0 0 0 0 0 0 0 0 0 0 0 0 0 0 0 0 0.22 0"/>
<feBlend mode="normal" in2="BackgroundImageFix" result="effect1_dropShadow_29_208"/>
<feBlend mode="normal" in="SourceGraphic" in2="effect1_dropShadow_29_208" result="shape"/>
<feColorMatrix in="SourceAlpha" type="matrix" values="0 0 0 0 0 0 0 0 0 0 0 0 0 0 0 0 0 0 127 0" result="hardAlpha"/>
<feOffset dx="22" dy="12"/>
<feGaussianBlur stdDeviation="11"/>
<feComposite in2="hardAlpha" operator="arithmetic" k2="-1" k3="1"/>
<feColorMatrix type="matrix" values="0 0 0 0 1 0 0 0 0 1 0 0 0 0 1 0 0 0 0.74 0"/>
<feBlend mode="normal" in2="shape" result="effect2_innerShadow_29_208"/>
</filter>
<linearGradient id="paint0_linear_29_208" x1="70.5" y1="2" x2="134" y2="29.5" gradientUnits="userSpaceOnUse">
<stop stop-color="#4F7FFA"/>
<stop offset="1" stop-color="#01EFFE"/>
</linearGradient>
<radialGradient id="paint1_radial_29_208" cx="0" cy="0" r="1" gradientUnits="userSpaceOnUse" gradientTransform="translate(20.5709 12.3996) rotate(90.6693) scale(20.4988 23.3918)">
<stop stop-color="white"/>
<stop offset="1" stop-color="#99CEFF"/>
</radialGradient>
</defs>
</svg>
